<svg width="32" height="27" viewBox="0 0 32 27" fill="none" xmlns="http://www.w3.org/2000/svg">
<path d="M24 26.8V7.9571C24 7.7827 24.209 7.69372 24.3361 7.81319C29.6944 12.8513 31.638 16.8987 31.9927 26.7903C31.9968 26.9033 31.9063 27 31.7932 27H24.2C24.0895 27 24 26.9105 24 26.8Z" fill="#62B6FC"/>
<path d="M19.8999 3.94161C16.9154 2.20406 15.181 1.43577 12.2558 0.574672C12.1281 0.537067 12 0.632948 12 0.766115V22.8819C12 22.9548 12.0406 23.0224 12.1044 23.0575C15.0519 24.6784 16.7869 25.4177 19.7364 26.4116C19.8658 26.4552 20 26.3589 20 26.2223V4.11481C20 4.04371 19.9613 3.97738 19.8999 3.94161Z" fill="#69E7AD"/>
<path d="M7.8 0H0.220415C0.1023 0 0.0101368 0.104181 0.0216287 0.221736C0.792065 8.10273 1.39475 12.2307 7.6518 19.1201C7.77415 19.2548 8 19.1711 8 18.9891V0.2C8 0.0895431 7.91046 0 7.8 0Z" fill="#9CF677"/>
</svg>
